<svg id="Layer_1" data-name="Layer 1" xmlns="http://www.w3.org/2000/svg" viewBox="0 0 200 200"><defs><style>.cls-1{fill:#f98529;}</style></defs><title>cruz-roja</title><path class="cls-1" d="M118.64,17.42a3.93,3.93,0,0,1,2.58,3.71c0,9.72,3.21,18.49,8.51,26.45,5.09,7.64,10.65,15,15.89,22.51,7.5,10.78,13.15,22.39,15.43,35.45,1.94,11.09,2.16,22.13-1.2,33A61.52,61.52,0,0,1,144,164.74a61.79,61.79,0,0,1-86.86,0,60.84,60.84,0,0,1-16.86-30.09,63.55,63.55,0,0,1-1.6-17.28A85.73,85.73,0,0,1,41.85,96c2.35-7.71,5.79-14.8,11.94-20.28a25.69,25.69,0,0,1,3.05-2.37c2.73-1.79,5.13-.72,6,2.42a95.84,95.84,0,0,0,3,10c1.81,4.68,4.53,8.81,8.86,11.58a46,46,0,0,0,5.08,2.44c.27-5.48.53-10.58.77-15.67,1-20.14,7.92-37.88,21.23-53.09A83.67,83.67,0,0,1,116.7,17.42Zm-13.38,100c-3.7,4.48-6.4,9.12-7.2,14.55-.66,4.45-.81,9-1.08,13.47-.18,3.18-1.74,4.57-4.91,4.16A11.78,11.78,0,0,1,83.59,144c-.49-.74-1-1.5-1.62-2.56-2.64,8.58-3.32,16.68,1.44,24.41,7.08,11.52,22.38,13.21,31.63,3.46,5.56-5.87,7-13,5.69-20.78a37.28,37.28,0,0,0-6-14.63C111.23,128.72,107.2,123.82,105.26,117.4Z"/></svg>