<svg id="Layer_1" data-name="Layer 1" xmlns="http://www.w3.org/2000/svg" viewBox="0 0 200 200"><defs><style>.cls-1{fill:#f98529;}</style></defs><title>cruz-roja</title><path class="cls-1" d="M113.72,183.13H95.44a17.13,17.13,0,0,1-5.88-1,16.53,16.53,0,0,1-3.8-1.78c-4.09-2.77-5.69-7-5.7-11.83V124.66H36.24c-4.92,0-9.15-1.66-11.93-5.82a12.31,12.31,0,0,1-1.08-2,21.54,21.54,0,0,1-1.64-8.43V92.53a21.42,21.42,0,0,1,1.65-8.44,12.26,12.26,0,0,1,1.07-2c2.78-4.16,7-5.82,11.94-5.82H80.06v-2.1c0-13.94,0-27.88,0-41.81,0-8.6,5.94-14.52,14.5-14.56q9.77,0,19.53,0A14.18,14.18,0,0,1,123,20.63c3.87,3,5.5,7,5.5,11.81v43.8h2.12c13.93,0,27.87,0,41.81,0,8.45,0,14.43,5.86,14.52,14.2.07,6.67,0,13.35,0,20a13.93,13.93,0,0,1-2.87,8.72c-3,3.85-7,5.47-11.83,5.47H128.49v2.16q0,20.75,0,41.49a14.71,14.71,0,0,1-3.83,10.48,12.68,12.68,0,0,1-3.88,2.83A16.12,16.12,0,0,1,113.72,183.13Z"/></svg>