<svg id="Layer_1" data-name="Layer 1" xmlns="http://www.w3.org/2000/svg" viewBox="0 0 445.56 485.61"><defs><style>.cls-1{fill:#f98529;}</style></defs><title>favicon-muni</title><path class="cls-1" d="M432.73,397.13q-27.83,29.47-63.41,29.48A62,62,0,0,1,344,421.33Q332,416,319.25,403.8c-1.6-1.52-3.22-3.15-4.87-4.87,3.61-1.16,7.19-2.41,10.71-3.75a202.72,202.72,0,0,0,67.59-42,190.35,190.35,0,0,0,44.78-64.25q15.85-37,15.85-80.38,0-43.93-15.85-80.66a191.21,191.21,0,0,0-44.78-64,202.88,202.88,0,0,0-67.59-42Q286.44,7.19,240.26,7.19t-84.82,15A206.49,206.49,0,0,0,87.85,64.49a191.66,191.66,0,0,0-44.78,63.69q-15.85,36.44-15.85,80.38,0,43.38,15.85,80.1a191,191,0,0,0,44.78,64,205.66,205.66,0,0,0,67.86,42.27A222.3,222.3,0,0,0,208.89,408q18.77,19.26,34.71,33.31,21.14,18.63,40.89,29.76a167.85,167.85,0,0,0,40.05,16.41,170.64,170.64,0,0,0,43.11,5.29q65.63,0,105.13-47.84ZM153.21,298.67a118.31,118.31,0,0,1-25.59-39.77q-9.18-23.07-9.18-50.34,0-27.81,9.18-50.62a119.14,119.14,0,0,1,25.59-39.5,115.1,115.1,0,0,1,38.66-25.86,125.62,125.62,0,0,1,48.39-9.18q26.14,0,48.12,9.18A119,119,0,0,1,327,118.44a116.93,116.93,0,0,1,25.87,39.5q9.18,22.82,9.18,50.62,0,27.25-9.18,50.34A116.14,116.14,0,0,1,327,298.67a118.87,118.87,0,0,1-38.66,25.87q-22,9.18-48.12,9.18a125.62,125.62,0,0,1-48.39-9.18A115,115,0,0,1,153.21,298.67Z" transform="translate(-27.22 -7.19)"/></svg>