<svg id="Layer_1" data-name="Layer 1" xmlns="http://www.w3.org/2000/svg" viewBox="0 0 600 600"><defs><style>.cls-1{fill:#f92d20;}</style></defs><title>iconos-pg-muni</title><path class="cls-1" d="M31,75c4.2-9.11,11.43-11.87,21.21-11.72,28.91.42,57.83.14,86.75.15,11.77,0,17,4.09,19.56,15.48,3.57,15.68,7.05,31.39,10.69,47.62H550.32c10.43,0,16.71,3.8,18.38,12a23.76,23.76,0,0,1-.72,10.77Q549.71,214,531.13,278.58q-12.2,42.65-24.42,85.27c-3.33,11.6-8,15.12-20,15.12q-139.08,0-278.16-.05c-7.42,0-13.53,1.93-17.05,8.91a15.64,15.64,0,0,0,12.62,22.57,60.11,60.11,0,0,0,6.3.12q138.56,0,277.11,0c7.41,0,13.54,1.89,17,8.9,5.17,10.3-1.89,22.12-13.67,22.6-8,.32-16.11.06-24,.06,5.67,2.43,11.83,4.13,16.88,7.5a53.49,53.49,0,0,1,13.92,13.24A46.11,46.11,0,0,1,505,480a53,53,0,0,1,.06,19.25c-3.88,21.63-25,38.19-46.93,37.47-24.7-.82-43.7-18.56-46.1-43.87-1.86-19.52,9.48-43.54,40.25-50.55H243.83c28.89,7.59,43.43,28.13,39.69,55.28-3,21.71-24,39.34-46.63,39.16-24.58-.21-44.26-18.28-46.75-43.75-2-20.76,10.91-44.37,39.48-51.6-10.24,0-20.57.83-30.72-.18-19.47-1.93-36-17.86-39.63-36.79-3.89-20.56,5.24-40.76,22.88-50.61,1.37-.76,2.75-1.5,4.57-2.48Q158.28,223.27,129.78,95H80.55c-9.46,0-18.95-.42-28.38.11-9.79.55-17-2.54-21.21-11.68Z"/></svg>