<svg id="Layer_1" data-name="Layer 1" xmlns="http://www.w3.org/2000/svg" viewBox="0 0 600 600"><defs><style>.cls-1{fill:#f92d20;}</style></defs><title>iconos-pg-muni</title><path class="cls-1" d="M319.83,438.43H280.46v63.3a35,35,0,0,1-35,35H107.78a40.51,40.51,0,0,1-39.84-47.76q35.48-194.82,70.88-389.29a44.22,44.22,0,0,1,43.5-36.3h73.51a24.31,24.31,0,0,1,24.31,24.31v73.93h39.61v-74a24.3,24.3,0,0,1,24.3-24.31h73.63a44.23,44.23,0,0,1,43.5,36.29q35.43,194.58,70.88,389.28a40.5,40.5,0,0,1-39.84,47.76H354.79a35,35,0,0,1-35-35ZM280.78,201.71v78.18h38.56V201.71ZM280.3,398.2h39.41c0-25.3.05-50.07-.15-74.85,0-1.21-2.25-3.42-3.5-3.45q-16-.42-32.1,0c-1.25,0-3.49,2.23-3.5,3.44C280.25,348.11,280.3,372.89,280.3,398.2Z"/></svg>