<svg id="Layer_1" data-name="Layer 1" xmlns="http://www.w3.org/2000/svg" viewBox="0 0 600 600"><defs><style>.cls-1{fill:#f92d20;}</style></defs><title>iconos-pg-muni</title><path class="cls-1" d="M309.25,63.31c9.49,1.85,19.18,3,28.44,5.65A140.13,140.13,0,0,1,439.61,202c.58,49.14.16,98.29.16,147.43,0,1.07-.14,2.13-.24,3.49H155.07c-.07-1.64-.19-3.13-.19-4.62,0-47.61-.11-95.21,0-142.82.17-67.59,45.32-123.92,111.28-138.89,6.27-1.42,12.69-2.19,19-3.27Zm-25.8,124.41H278c-8.47,0-17-.19-25.41.16a13.48,13.48,0,0,0-13.1,13.51,13.75,13.75,0,0,0,12.76,13.9c2.59.26,5.23.15,7.85.16h23.37v6q0,44.82,0,89.65c0,7.06,3.18,12.14,8.81,14.38,9.36,3.72,18.86-3,18.88-13.62.08-30.19,0-60.38,0-90.57v-5.89c10.25,0,19.93.13,29.6,0,8.44-.15,14.43-5.92,14.58-13.62s-6-13.85-14.61-14c-8.16-.16-16.32,0-24.49-.06-1.62,0-3.24-.17-5.09-.28,0-10.53.11-20.53,0-30.54A13.82,13.82,0,0,0,297.39,143a14.05,14.05,0,0,0-13.86,13.4c-.26,4.61-.08,9.24-.08,13.86C283.44,175.9,283.45,181.56,283.45,187.72Z"/><path class="cls-1" d="M108.62,536.69c-7.83-3.52-10.67-9.55-10.36-18.08.47-13.23.1-26.48.13-39.72,0-10,5.43-15.35,15.45-15.35q186.17,0,372.32,0c10,0,15.42,5.36,15.45,15.35,0,13.24-.32,26.49.13,39.72.3,8.51-2.49,14.57-10.35,18.08Z"/><path class="cls-1" d="M476.69,435.58H123.18v-7.43c0-10.78-.06-21.56,0-32.34.07-9.2,5.44-14.55,14.64-14.84.92,0,1.85,0,2.77,0H459.43a38.54,38.54,0,0,1,6,.31c6,.92,11,5.79,11.17,11.81C476.9,407.08,476.69,421.09,476.69,435.58Z"/></svg>