<svg id="Layer_1" data-name="Layer 1" xmlns="http://www.w3.org/2000/svg" viewBox="0 0 681.55 173.08"><defs><style>.cls-1{fill:#f98529;}</style></defs><title>logo-pagina-muni</title><path class="cls-1" d="M82.46,171.32a71.29,71.29,0,0,1-25.94-4.61,63,63,0,0,1-20.83-13A58.61,58.61,0,0,1,22,134.11a61.38,61.38,0,0,1-4.86-24.58A61.18,61.18,0,0,1,22,84.87,58.9,58.9,0,0,1,35.69,65.32a63.41,63.41,0,0,1,20.74-13,71.37,71.37,0,0,1,26-4.61,72.6,72.6,0,0,1,26,4.52,62.3,62.3,0,0,1,20.74,12.89A58.57,58.57,0,0,1,143,84.78a61.66,61.66,0,0,1,4.87,24.75A61.86,61.86,0,0,1,143,134.2a58.2,58.2,0,0,1-13.74,19.71,62,62,0,0,1-20.74,12.89A72.6,72.6,0,0,1,82.46,171.32Zm0-23.38a37.93,37.93,0,0,0,14.77-2.82,36.46,36.46,0,0,0,11.86-7.94A35.59,35.59,0,0,0,117,125a44,44,0,0,0,0-31,35.73,35.73,0,0,0-7.94-12.12,36.62,36.62,0,0,0-11.86-7.94,37.92,37.92,0,0,0-14.77-2.81,38.5,38.5,0,0,0-14.85,2.81,35.38,35.38,0,0,0-11.86,7.94A36.42,36.42,0,0,0,47.9,94a44,44,0,0,0,0,31,36.27,36.27,0,0,0,7.85,12.2,35.23,35.23,0,0,0,11.86,7.94A38.51,38.51,0,0,0,82.46,147.94Zm39.09,48.82A49.92,49.92,0,0,1,96,190.1,74.79,74.79,0,0,1,83.49,181Q77,175.24,69,166.71l29.19-7.34a75.88,75.88,0,0,0,8.53,10.08,27.23,27.23,0,0,0,7.6,5.37,19,19,0,0,0,7.76,1.62q10.94,0,19.46-9l12.29,14.68Q141.69,196.75,121.55,196.76Z" transform="translate(-17.09 -47.74)"/><path class="cls-1" d="M198.71,170.64a45.23,45.23,0,0,1-20.49-4.44,31.41,31.41,0,0,1-13.82-13.65q-5-9.23-5-23.22V77.44h26.62v47.8q0,11.61,4.87,17t13.74,5.38a21.59,21.59,0,0,0,10.92-2.73,19.3,19.3,0,0,0,7.6-8.2Q226,131.21,226,123V77.44h26.45v91.83H227.21V143.84l4.61,7.51a32.6,32.6,0,0,1-13.66,14.43A39.81,39.81,0,0,1,198.71,170.64Z" transform="translate(-17.09 -47.74)"/><path class="cls-1" d="M316,170.64q-15.71,0-27.48-6.14a44.79,44.79,0,0,1-24.75-41.14A47.74,47.74,0,0,1,270,99a43.82,43.82,0,0,1,17.41-16.81,52,52,0,0,1,25.18-6.06,50.69,50.69,0,0,1,24.32,5.8A43.55,43.55,0,0,1,354,98.27q6.31,10.58,6.31,25.43c0,1-.06,2.19-.17,3.5s-.23,2.53-.34,3.67H285.25V115.34h60.59l-10.41,4.6a24.37,24.37,0,0,0-2.73-12.46,21.35,21.35,0,0,0-8-8.28,23.42,23.42,0,0,0-11.95-3,23.89,23.89,0,0,0-12,3,20.86,20.86,0,0,0-8.1,8.37,26.32,26.32,0,0,0-2.9,12.72v4.09a25.19,25.19,0,0,0,3.41,13.32,22.48,22.48,0,0,0,9.39,8.62,31.76,31.76,0,0,0,14.34,3,34,34,0,0,0,12.71-2.22,31.17,31.17,0,0,0,10.16-6.65l14.17,15.36a41.37,41.37,0,0,1-15.88,11A58.72,58.72,0,0,1,316,170.64Z" transform="translate(-17.09 -47.74)"/><path class="cls-1" d="M371.28,215.68V77.44h25.43V96.22l-.51,27.31,1.7,27.14v65Zm54.11-45a39.05,39.05,0,0,1-20.15-5.12q-8.7-5.11-13.57-15.62t-4.86-26.54q0-16.22,4.61-26.63a32.54,32.54,0,0,1,13.4-15.53,40.05,40.05,0,0,1,20.57-5.12A46.61,46.61,0,0,1,448.86,82a43.43,43.43,0,0,1,16.38,16.48q6.06,10.57,6.06,24.92,0,14.51-6.06,25a43.54,43.54,0,0,1-16.38,16.39A46.51,46.51,0,0,1,425.39,170.64ZM421,148.79a22.19,22.19,0,0,0,20.23-11.86,27.71,27.71,0,0,0,3.15-13.57,27.62,27.62,0,0,0-3.15-13.66,22.26,22.26,0,0,0-8.37-8.62,23.4,23.4,0,0,0-11.86-3,23.9,23.9,0,0,0-11.95,3,22,22,0,0,0-8.45,8.62,27.51,27.51,0,0,0-3.16,13.66,27.61,27.61,0,0,0,3.16,13.57,22.43,22.43,0,0,0,8.45,8.79A23.34,23.34,0,0,0,421,148.79Z" transform="translate(-17.09 -47.74)"/><path class="cls-1" d="M525.75,170.64a53.53,53.53,0,0,1-25.86-6.14,47.76,47.76,0,0,1-17.84-65.64,45.56,45.56,0,0,1,17.84-16.72,54.07,54.07,0,0,1,25.86-6.06,55,55,0,0,1,26.12,6.06,45.37,45.37,0,0,1,17.92,16.72,46.19,46.19,0,0,1,6.49,24.5,45.72,45.72,0,0,1-6.49,24.41,46.27,46.27,0,0,1-17.92,16.73A54.4,54.4,0,0,1,525.75,170.64Zm0-21.85a23.72,23.72,0,0,0,12-3,21.92,21.92,0,0,0,8.36-8.79,28.17,28.17,0,0,0,3.16-13.65,27.62,27.62,0,0,0-3.16-13.66,22.24,22.24,0,0,0-8.36-8.62,23.47,23.47,0,0,0-11.87-3,23.93,23.93,0,0,0-11.95,3,22,22,0,0,0-8.44,8.62,27.51,27.51,0,0,0-3.16,13.66A28.06,28.06,0,0,0,505.53,137,21.7,21.7,0,0,0,514,145.8,23.48,23.48,0,0,0,525.75,148.79Z" transform="translate(-17.09 -47.74)"/><path class="cls-1" d="M618.1,170.64a88.48,88.48,0,0,1-22.53-2.82q-10.76-2.81-17.24-7.08l8.7-19A66.56,66.56,0,0,0,602.14,148a61.27,61.27,0,0,0,17,2.48q9.23,0,13.06-2.22a6.83,6.83,0,0,0,3.84-6.15,5.22,5.22,0,0,0-3-4.86,26.11,26.11,0,0,0-7.85-2.48q-4.86-.84-10.84-1.7a108.26,108.26,0,0,1-11.86-2.39,46.31,46.31,0,0,1-10.93-4.36,21.41,21.41,0,0,1-8-7.76q-3-5-3-12.8a24.83,24.83,0,0,1,5.13-15.45q5.12-6.75,14.5-10.5t22.71-3.75a88.81,88.81,0,0,1,19.2,2.13,59.25,59.25,0,0,1,16.3,5.89l-9,19a47.31,47.31,0,0,0-13.22-5.3,58.29,58.29,0,0,0-12.89-1.53c-6.15,0-10.58.79-13.32,2.39s-4.09,3.64-4.09,6.14a5.7,5.7,0,0,0,3.07,5.21,24,24,0,0,0,8,2.64c3.3.58,6.94,1.14,10.93,1.71a104.13,104.13,0,0,1,11.78,2.39,46.56,46.56,0,0,1,10.83,4.35,21.54,21.54,0,0,1,8,7.77q3,5,3,12.8a23.62,23.62,0,0,1-5.12,14.94q-5.12,6.57-14.76,10.33T618.1,170.64Z" transform="translate(-17.09 -47.74)"/><path class="cls-1" d="M682.08,170.64A16.22,16.22,0,0,1,670.39,166a17.21,17.21,0,0,1,0-24,17.24,17.24,0,0,1,23.47,0,16.69,16.69,0,0,1-11.78,28.68Z" transform="translate(-17.09 -47.74)"/><path class="cls-1" d="M403,212.68v-29.4h1.8l13.65,23.56h-1l13.61-23.56h1.76l0,29.4h-2.1l0-26.17h.59l-12.9,22.26h-1.05L404.5,186.51h.63v26.17Z" transform="translate(-17.09 -47.74)"/><path class="cls-1" d="M451.41,212.84a10.86,10.86,0,0,1-4.87-1,7.21,7.21,0,0,1-3.17-3.11,10.84,10.84,0,0,1-1.11-5.15V190.75h2.1v12.64a7.71,7.71,0,0,0,1.89,5.63,7.1,7.1,0,0,0,5.33,1.93,8.36,8.36,0,0,0,4.28-1,7,7,0,0,0,2.78-3,9.93,9.93,0,0,0,1-4.51V190.75h2.1v21.93h-2v-6.09l.29.71a8.2,8.2,0,0,1-3.21,4A9.44,9.44,0,0,1,451.41,212.84Z" transform="translate(-17.09 -47.74)"/><path class="cls-1" d="M481.32,190.58a10.15,10.15,0,0,1,4.68,1,7.35,7.35,0,0,1,3.11,3.11,10.84,10.84,0,0,1,1.11,5.15v12.81h-2.1V200a7.75,7.75,0,0,0-1.87-5.62,6.94,6.94,0,0,0-5.23-1.94,9,9,0,0,0-4.45,1.05,7,7,0,0,0-2.88,2.94,9.69,9.69,0,0,0-1,4.54v11.68h-2.1V190.75h2v6.09l-.29-.67a8.27,8.27,0,0,1,3.32-4.09A10.19,10.19,0,0,1,481.32,190.58Z" transform="translate(-17.09 -47.74)"/><path class="cls-1" d="M499.92,185.42a1.65,1.65,0,0,1-1.22-.51,1.6,1.6,0,0,1-.5-1.17,1.68,1.68,0,0,1,.5-1.22,1.64,1.64,0,0,1,1.22-.5,1.69,1.69,0,0,1,1.24.48,1.63,1.63,0,0,1,.48,1.2,1.68,1.68,0,0,1-.48,1.21A1.64,1.64,0,0,1,499.92,185.42Zm-1.05,27.26V190.75H501v21.93Z" transform="translate(-17.09 -47.74)"/><path class="cls-1" d="M518.53,212.84a11.26,11.26,0,0,1-5.69-1.42,10.48,10.48,0,0,1-4-3.95,12.23,12.23,0,0,1,0-11.55,10.29,10.29,0,0,1,4-3.93,12.08,12.08,0,0,1,10.5-.4,8.34,8.34,0,0,1,3.5,3l-1.55,1.13a7.21,7.21,0,0,0-2.94-2.48,9.62,9.62,0,0,0-8.42.36,8.26,8.26,0,0,0-3.19,3.23,10.74,10.74,0,0,0,0,9.71,8.26,8.26,0,0,0,3.19,3.23,9.71,9.71,0,0,0,8.42.36,7.29,7.29,0,0,0,2.94-2.48l1.55,1.13a8.41,8.41,0,0,1-3.5,3A11.32,11.32,0,0,1,518.53,212.84Z" transform="translate(-17.09 -47.74)"/><path class="cls-1" d="M533.81,185.42a1.63,1.63,0,0,1-1.21-.51,1.58,1.58,0,0,1-.51-1.17,1.65,1.65,0,0,1,.51-1.22,1.62,1.62,0,0,1,1.21-.5,1.67,1.67,0,0,1,1.24.48,1.6,1.6,0,0,1,.49,1.2,1.65,1.65,0,0,1-.49,1.21A1.62,1.62,0,0,1,533.81,185.42Zm-1,27.26V190.75h2.1v21.93Z" transform="translate(-17.09 -47.74)"/><path class="cls-1" d="M543.73,220.82V190.75h2v7.18l-.33,3.83.42,3.82v15.24Zm11-8a10.23,10.23,0,0,1-5.23-1.34,9.78,9.78,0,0,1-3.7-3.84,13.67,13.67,0,0,1,0-11.89,9.71,9.71,0,0,1,3.7-3.84,10.24,10.24,0,0,1,5.23-1.35,10.94,10.94,0,0,1,5.56,1.41,10.15,10.15,0,0,1,3.87,3.93,12.61,12.61,0,0,1,0,11.59,10.15,10.15,0,0,1-3.87,3.93A10.94,10.94,0,0,1,554.73,212.84ZM554.6,211a9,9,0,0,0,4.54-1.15,8.22,8.22,0,0,0,3.17-3.26,10.68,10.68,0,0,0,0-9.68,8.34,8.34,0,0,0-3.17-3.23,9,9,0,0,0-4.54-1.16,8.83,8.83,0,0,0-4.51,1.16,8.36,8.36,0,0,0-3.15,3.23,10.68,10.68,0,0,0,0,9.68,8.24,8.24,0,0,0,3.15,3.26A8.82,8.82,0,0,0,554.6,211Z" transform="translate(-17.09 -47.74)"/><path class="cls-1" d="M577.91,212.84a10.49,10.49,0,0,1-4.22-.77,6,6,0,0,1-2.73-2.21,5.78,5.78,0,0,1-.94-3.27,6.14,6.14,0,0,1,.77-3.05,5.59,5.59,0,0,1,2.59-2.22,11.22,11.22,0,0,1,4.83-.87h8.06v1.64h-8q-3.4,0-4.77,1.26a4.34,4.34,0,0,0,.23,6.51,7.13,7.13,0,0,0,4.5,1.26,8.3,8.3,0,0,0,4.68-1.26,7.44,7.44,0,0,0,2.84-3.65l.58,1.43a7.61,7.61,0,0,1-3,3.8A9.55,9.55,0,0,1,577.91,212.84Zm7.9-.16v-5l-.08-.76v-8.23a6.19,6.19,0,0,0-1.66-4.66,6.72,6.72,0,0,0-4.85-1.6,11.6,11.6,0,0,0-7.56,2.77l-1-1.51a11.68,11.68,0,0,1,3.94-2.29,14.5,14.5,0,0,1,4.83-.82,8.78,8.78,0,0,1,6.26,2.06c1.46,1.37,2.19,3.42,2.19,6.13v13.91Z" transform="translate(-17.09 -47.74)"/><path class="cls-1" d="M596.48,212.68V181.51h2.1v31.17Z" transform="translate(-17.09 -47.74)"/><path class="cls-1" d="M608.49,185.42a1.65,1.65,0,0,1-1.22-.51,1.57,1.57,0,0,1-.5-1.17,1.71,1.71,0,0,1,1.72-1.72,1.69,1.69,0,0,1,1.24.48,1.63,1.63,0,0,1,.48,1.2,1.68,1.68,0,0,1-.48,1.21A1.64,1.64,0,0,1,608.49,185.42Zm-1,27.26V190.75h2.1v21.93Z" transform="translate(-17.09 -47.74)"/><path class="cls-1" d="M626.84,212.84a10.89,10.89,0,0,1-5.52-1.4,10.34,10.34,0,0,1-3.89-3.93,12.58,12.58,0,0,1,0-11.61,10.36,10.36,0,0,1,3.89-3.91,10.9,10.9,0,0,1,5.52-1.41,10.24,10.24,0,0,1,5.23,1.35,9.65,9.65,0,0,1,3.7,3.82,12.18,12.18,0,0,1,1.36,6,12.5,12.5,0,0,1-1.34,5.93,9.52,9.52,0,0,1-3.68,3.86A10.3,10.3,0,0,1,626.84,212.84ZM627,211a8.82,8.82,0,0,0,4.51-1.15,8.24,8.24,0,0,0,3.15-3.26,10.68,10.68,0,0,0,0-9.68,8.36,8.36,0,0,0-3.15-3.23,9.37,9.37,0,0,0-9,0,8.36,8.36,0,0,0-3.15,3.23,10.76,10.76,0,0,0,0,9.68,8.24,8.24,0,0,0,3.15,3.26A8.86,8.86,0,0,0,627,211Zm8.86,1.73v-7.19l.38-3.82-.42-3.82V181.51h2.1v31.17Z" transform="translate(-17.09 -47.74)"/><path class="cls-1" d="M652.67,212.84a10.49,10.49,0,0,1-4.22-.77,6,6,0,0,1-2.73-2.21,5.78,5.78,0,0,1-.94-3.27,6,6,0,0,1,.77-3.05,5.59,5.59,0,0,1,2.59-2.22,11.22,11.22,0,0,1,4.83-.87H661v1.64h-8q-3.4,0-4.77,1.26a4.34,4.34,0,0,0,.23,6.51,7.11,7.11,0,0,0,4.5,1.26,8.34,8.34,0,0,0,4.68-1.26,7.42,7.42,0,0,0,2.83-3.65l.59,1.43a7.66,7.66,0,0,1-3,3.8A9.57,9.57,0,0,1,652.67,212.84Zm7.9-.16v-5l-.09-.76v-8.23a6.15,6.15,0,0,0-1.66-4.66,6.69,6.69,0,0,0-4.85-1.6,11.27,11.27,0,0,0-4.22.78,11.56,11.56,0,0,0-3.34,2l-1-1.51a11.83,11.83,0,0,1,3.95-2.29,14.5,14.5,0,0,1,4.83-.82,8.8,8.8,0,0,1,6.26,2.06c1.46,1.37,2.18,3.42,2.18,6.13v13.91Z" transform="translate(-17.09 -47.74)"/><path class="cls-1" d="M679.68,212.84a10.9,10.9,0,0,1-5.53-1.4,10.32,10.32,0,0,1-3.88-3.93,12.5,12.5,0,0,1,0-11.61,10.33,10.33,0,0,1,3.88-3.91,10.91,10.91,0,0,1,5.53-1.41,10.27,10.27,0,0,1,5.23,1.35,9.7,9.7,0,0,1,3.69,3.82,12.18,12.18,0,0,1,1.37,6,12.39,12.39,0,0,1-1.35,5.93A9.5,9.5,0,0,1,685,211.5,10.33,10.33,0,0,1,679.68,212.84Zm.12-1.89a8.86,8.86,0,0,0,4.52-1.15,8.24,8.24,0,0,0,3.15-3.26,10.76,10.76,0,0,0,0-9.68,8.36,8.36,0,0,0-3.15-3.23,9.37,9.37,0,0,0-9,0,8.36,8.36,0,0,0-3.15,3.23,10.68,10.68,0,0,0,0,9.68,8.24,8.24,0,0,0,3.15,3.26A8.82,8.82,0,0,0,679.8,211Zm8.87,1.73v-7.19l.37-3.82-.42-3.82V181.51h2.1v31.17Z" transform="translate(-17.09 -47.74)"/></svg>