<svg id="Layer_1" data-name="Layer 1" xmlns="http://www.w3.org/2000/svg" viewBox="0 0 707.42 209.69"><defs><style>.cls-1{fill:#fff;}</style></defs><title>logo-blanco-muni</title><path class="cls-1" d="M80.27,144.73a71.59,71.59,0,0,1-25.95-4.61,63.15,63.15,0,0,1-20.82-13,58.57,58.57,0,0,1-13.74-19.63,61.25,61.25,0,0,1-4.87-24.58,61.06,61.06,0,0,1,4.87-24.67A58.71,58.71,0,0,1,33.5,38.73a63.33,63.33,0,0,1,20.74-13,71.29,71.29,0,0,1,26-4.61,72.42,72.42,0,0,1,26,4.53A62.08,62.08,0,0,1,127,38.56a58.57,58.57,0,0,1,13.74,19.62,61.91,61.91,0,0,1,4.86,24.76,62,62,0,0,1-4.86,24.66A58.48,58.48,0,0,1,127,127.32,62.21,62.21,0,0,1,106.3,140.2,72.42,72.42,0,0,1,80.27,144.73Zm0-23.39A38,38,0,0,0,95,118.53a36.66,36.66,0,0,0,11.87-7.94,35.61,35.61,0,0,0,7.93-12.21,41.37,41.37,0,0,0,2.82-15.44,41.26,41.26,0,0,0-2.82-15.54,35.9,35.9,0,0,0-7.93-12.12A36.47,36.47,0,0,0,95,47.35a37.84,37.84,0,0,0-14.76-2.82,38.51,38.51,0,0,0-14.85,2.82,35.25,35.25,0,0,0-11.87,7.93A36.78,36.78,0,0,0,45.7,67.4a41.26,41.26,0,0,0-2.81,15.54A41.36,41.36,0,0,0,45.7,98.38a36.47,36.47,0,0,0,7.85,12.21,35.42,35.42,0,0,0,11.87,7.94A38.69,38.69,0,0,0,80.27,121.34Zm39.09,48.82a52.36,52.36,0,0,1-13.23-1.62,51.08,51.08,0,0,1-12.29-5,74.68,74.68,0,0,1-12.55-9.13q-6.48-5.72-14.51-14.25L96,132.78a75.7,75.7,0,0,0,8.54,10.07,27.32,27.32,0,0,0,7.59,5.38,19.05,19.05,0,0,0,7.77,1.62q10.92,0,19.46-9l12.29,14.68Q139.5,170.17,119.36,170.16Z"/><path class="cls-1" d="M196.51,144A45.16,45.16,0,0,1,176,139.61,31.41,31.41,0,0,1,162.2,126q-4.95-9.21-4.95-23.21V50.85h26.63V98.64q0,11.61,4.86,17T202.48,121a21.65,21.65,0,0,0,10.93-2.73,19.31,19.31,0,0,0,7.59-8.19q2.82-5.46,2.82-13.66V50.85h26.46v91.83H225V117.25l4.6,7.51A32.56,32.56,0,0,1,216,139.18,39.88,39.88,0,0,1,196.51,144Z"/><path class="cls-1" d="M313.78,144q-15.7,0-27.49-6.14a44.76,44.76,0,0,1-24.75-41.14,47.84,47.84,0,0,1,6.23-24.41,43.88,43.88,0,0,1,17.41-16.81,52,52,0,0,1,25.18-6.06,50.84,50.84,0,0,1,24.33,5.8,43.66,43.66,0,0,1,17.15,16.39q6.32,10.59,6.32,25.43c0,1-.06,2.2-.17,3.5s-.23,2.54-.35,3.67H283.05V88.74h60.6l-10.42,4.61a24.17,24.17,0,0,0-2.73-12.46,21.15,21.15,0,0,0-8-8.28,23.3,23.3,0,0,0-12-3,23.75,23.75,0,0,0-12,3A20.85,20.85,0,0,0,290.39,81a26.37,26.37,0,0,0-2.9,12.72v4.1a25.22,25.22,0,0,0,3.41,13.31,22.53,22.53,0,0,0,9.39,8.62,31.76,31.76,0,0,0,14.34,3,34,34,0,0,0,12.72-2.22,31.43,31.43,0,0,0,10.15-6.66l14.17,15.36a41.26,41.26,0,0,1-15.87,11A58.8,58.8,0,0,1,313.78,144Z"/><path class="cls-1" d="M369.08,189.08V50.85h25.43V69.62L394,96.93l1.71,27.14v65Zm54.11-45a38.89,38.89,0,0,1-20.14-5.12q-8.71-5.11-13.57-15.62t-4.87-26.54q0-16.22,4.61-26.63a32.54,32.54,0,0,1,13.4-15.53,40.17,40.17,0,0,1,20.57-5.12,46.51,46.51,0,0,1,23.47,5.89,43.43,43.43,0,0,1,16.39,16.47q6.06,10.59,6.06,24.92,0,14.52-6.06,25a43.64,43.64,0,0,1-16.39,16.39A46.61,46.61,0,0,1,423.19,144Zm-4.44-21.84a22.93,22.93,0,0,0,11.87-3.08,22.65,22.65,0,0,0,8.36-8.79,27.69,27.69,0,0,0,3.16-13.57A27.55,27.55,0,0,0,439,83.11a22.17,22.17,0,0,0-8.36-8.62,23.47,23.47,0,0,0-11.87-3,23.9,23.9,0,0,0-11.95,3,22,22,0,0,0-8.45,8.62,27.55,27.55,0,0,0-3.15,13.65,27.69,27.69,0,0,0,3.15,13.57,22.44,22.44,0,0,0,8.45,8.79A23.35,23.35,0,0,0,418.75,122.2Z"/><path class="cls-1" d="M523.56,144a53.37,53.37,0,0,1-25.86-6.14,45.39,45.39,0,0,1-24.33-41.14,46.13,46.13,0,0,1,6.49-24.49A45.51,45.51,0,0,1,497.7,55.54a54,54,0,0,1,25.86-6.06,54.91,54.91,0,0,1,26.11,6.06A45.43,45.43,0,0,1,567.6,72.27a46.21,46.21,0,0,1,6.48,24.49,45,45,0,0,1-24.41,41.14A54.25,54.25,0,0,1,523.56,144Zm0-21.84a23.75,23.75,0,0,0,12-3,21.85,21.85,0,0,0,8.36-8.79,28.1,28.1,0,0,0,3.16-13.66A27.44,27.44,0,0,0,544,83.11a22.1,22.1,0,0,0-8.36-8.62,23.4,23.4,0,0,0-11.86-3,23.9,23.9,0,0,0-12,3,21.91,21.91,0,0,0-8.45,8.62,27.44,27.44,0,0,0-3.16,13.65,28.1,28.1,0,0,0,3.16,13.66,21.66,21.66,0,0,0,8.45,8.79A23.55,23.55,0,0,0,523.56,122.2Z"/><path class="cls-1" d="M615.9,144a88.48,88.48,0,0,1-22.53-2.81q-10.75-2.82-17.24-7.09l8.71-18.94a66.93,66.93,0,0,0,15.1,6.23,61.37,61.37,0,0,0,17,2.47q9.21,0,13.05-2.22a6.8,6.8,0,0,0,3.84-6.14,5.24,5.24,0,0,0-3-4.87A26.13,26.13,0,0,0,623,108.2q-4.87-.86-10.84-1.71a105.68,105.68,0,0,1-11.87-2.39,45.79,45.79,0,0,1-10.92-4.35,21.44,21.44,0,0,1-8-7.77q-3-5-3-12.8a24.9,24.9,0,0,1,5.12-15.45Q588.59,57,598,53.23t22.7-3.75a88.81,88.81,0,0,1,19.2,2.13,59.65,59.65,0,0,1,16.31,5.89l-9.05,19a47.45,47.45,0,0,0-13.23-5.29A57.73,57.73,0,0,0,621,69.62q-9.21,0-13.31,2.39c-2.73,1.6-4.1,3.64-4.1,6.15a5.7,5.7,0,0,0,3.07,5.2,24,24,0,0,0,8,2.65q4.95.85,10.92,1.71a104.1,104.1,0,0,1,11.78,2.38,46.66,46.66,0,0,1,10.84,4.36,21.48,21.48,0,0,1,8,7.76c2,3.31,3,7.57,3,12.81A23.67,23.67,0,0,1,654.14,130q-5.13,6.57-14.77,10.33T615.9,144Z"/><path class="cls-1" d="M679.89,144a16.25,16.25,0,0,1-11.7-4.69,17.22,17.22,0,0,1,0-24,17.24,17.24,0,0,1,23.47,0q4.79,4.6,4.78,12.12a15.91,15.91,0,0,1-4.78,11.86A16.13,16.13,0,0,1,679.89,144Z"/><path class="cls-1" d="M400.83,186.08v-29.4h1.81l13.65,23.56h-1l13.61-23.56h1.76l.05,29.4h-2.1l-.05-26.17h.59l-12.89,22.26h-1.05L402.3,159.91h.63v26.17Z"/><path class="cls-1" d="M449.22,186.25a10.77,10.77,0,0,1-4.88-1,7.16,7.16,0,0,1-3.17-3.11,10.82,10.82,0,0,1-1.11-5.14V164.16h2.1V176.8a7.74,7.74,0,0,0,1.89,5.63,7.15,7.15,0,0,0,5.33,1.93,8.39,8.39,0,0,0,4.29-1.05,7,7,0,0,0,2.77-3,10,10,0,0,0,1-4.52V164.16h2.1v21.92h-2V180l.29.71a8.22,8.22,0,0,1-3.21,4.06A9.48,9.48,0,0,1,449.22,186.25Z"/><path class="cls-1" d="M479.12,164a10,10,0,0,1,4.68,1,7.19,7.19,0,0,1,3.11,3.11,10.8,10.8,0,0,1,1.11,5.14v12.81h-2.1V173.44a7.8,7.8,0,0,0-1.86-5.63,6.94,6.94,0,0,0-5.23-1.93,9,9,0,0,0-4.46,1.05,7,7,0,0,0-2.87,2.94,9.65,9.65,0,0,0-1,4.53v11.68h-2.1V164.16h2v6.09l-.3-.68a8.32,8.32,0,0,1,3.32-4.09A10.27,10.27,0,0,1,479.12,164Z"/><path class="cls-1" d="M497.73,158.82a1.67,1.67,0,0,1-1.22-.5,1.61,1.61,0,0,1-.51-1.18,1.75,1.75,0,0,1,3-1.24,1.61,1.61,0,0,1,.49,1.2,1.67,1.67,0,0,1-.49,1.22A1.64,1.64,0,0,1,497.73,158.82Zm-1.05,27.26V164.16h2.09v21.92Z"/><path class="cls-1" d="M516.33,186.25a11.29,11.29,0,0,1-5.69-1.43,10.48,10.48,0,0,1-3.95-3.95,12.23,12.23,0,0,1,0-11.55,10.26,10.26,0,0,1,3.95-3.92,11.38,11.38,0,0,1,5.69-1.41,11.11,11.11,0,0,1,4.81,1,8.47,8.47,0,0,1,3.51,3l-1.56,1.13a7.06,7.06,0,0,0-2.94-2.47,9,9,0,0,0-3.82-.8,9.16,9.16,0,0,0-4.6,1.15,8.22,8.22,0,0,0-3.19,3.24,10.8,10.8,0,0,0,0,9.7,8.19,8.19,0,0,0,3.19,3.23,9.62,9.62,0,0,0,8.42.36,7.09,7.09,0,0,0,2.94-2.48l1.56,1.14a8.47,8.47,0,0,1-3.51,3A11.26,11.26,0,0,1,516.33,186.25Z"/><path class="cls-1" d="M531.62,158.82a1.68,1.68,0,0,1-1.22-.5,1.6,1.6,0,0,1-.5-1.18,1.66,1.66,0,0,1,.5-1.22,1.79,1.79,0,0,1,2.46,0,1.64,1.64,0,0,1,.48,1.2,1.71,1.71,0,0,1-.48,1.22A1.67,1.67,0,0,1,531.62,158.82Zm-1,27.26V164.16h2.1v21.92Z"/><path class="cls-1" d="M541.53,194.23V164.16h2v7.18l-.34,3.82.42,3.82v15.25Zm11-8a10.2,10.2,0,0,1-5.22-1.35,9.58,9.58,0,0,1-3.7-3.84,13.56,13.56,0,0,1,0-11.88,9.67,9.67,0,0,1,3.7-3.85,10.3,10.3,0,0,1,5.22-1.34,11,11,0,0,1,5.57,1.41,10,10,0,0,1,3.86,3.92,12.61,12.61,0,0,1,0,11.59,10.13,10.13,0,0,1-3.86,3.93A11,11,0,0,1,552.53,186.25Zm-.12-1.89a8.93,8.93,0,0,0,4.53-1.16,8.22,8.22,0,0,0,3.18-3.25,10.76,10.76,0,0,0,0-9.68,8.26,8.26,0,0,0-3.18-3.24,9.48,9.48,0,0,0-9.05,0,8.32,8.32,0,0,0-3.15,3.24,10.76,10.76,0,0,0,0,9.68,8.28,8.28,0,0,0,3.15,3.25A8.87,8.87,0,0,0,552.41,184.36Z"/><path class="cls-1" d="M575.72,186.25a10.46,10.46,0,0,1-4.22-.78,6.09,6.09,0,0,1-2.73-2.2,5.84,5.84,0,0,1-.95-3.28,6,6,0,0,1,.78-3,5.63,5.63,0,0,1,2.58-2.23,11.45,11.45,0,0,1,4.83-.86h8.07v1.64h-8q-3.39,0-4.76,1.26a4.11,4.11,0,0,0-1.37,3.15,4.05,4.05,0,0,0,1.6,3.36,7.08,7.08,0,0,0,4.49,1.26,8.3,8.3,0,0,0,4.68-1.26,7.42,7.42,0,0,0,2.84-3.66l.59,1.43a7.59,7.59,0,0,1-3,3.8A9.54,9.54,0,0,1,575.72,186.25Zm7.89-.17v-5l-.08-.75v-8.24a6.17,6.17,0,0,0-1.66-4.66,6.75,6.75,0,0,0-4.85-1.59,11.46,11.46,0,0,0-7.56,2.77l-1.05-1.51a11.57,11.57,0,0,1,4-2.29,14.25,14.25,0,0,1,4.83-.82,8.81,8.81,0,0,1,6.26,2.06q2.17,2.05,2.18,6.13v13.9Z"/><path class="cls-1" d="M594.28,186.08V154.92h2.1v31.16Z"/><path class="cls-1" d="M606.29,158.82a1.7,1.7,0,0,1-1.22-.5,1.64,1.64,0,0,1-.5-1.18,1.71,1.71,0,0,1,1.72-1.72,1.67,1.67,0,0,1,1.24.48,1.65,1.65,0,0,1,.49,1.2,1.72,1.72,0,0,1-.49,1.22A1.65,1.65,0,0,1,606.29,158.82Zm-1,27.26V164.16h2.1v21.92Z"/><path class="cls-1" d="M624.65,186.25a10.91,10.91,0,0,1-5.53-1.41,10.25,10.25,0,0,1-3.88-3.93,12.5,12.5,0,0,1,0-11.61,10.24,10.24,0,0,1,3.88-3.9,10.91,10.91,0,0,1,5.53-1.41,10.36,10.36,0,0,1,5.23,1.34,9.76,9.76,0,0,1,3.69,3.82,12.22,12.22,0,0,1,1.37,6,12.35,12.35,0,0,1-1.35,5.92,9.44,9.44,0,0,1-3.67,3.86A10.34,10.34,0,0,1,624.65,186.25Zm.12-1.89a8.87,8.87,0,0,0,4.52-1.16,8.28,8.28,0,0,0,3.15-3.25,10.76,10.76,0,0,0,0-9.68,8.32,8.32,0,0,0-3.15-3.24,9.44,9.44,0,0,0-9,0,8.32,8.32,0,0,0-3.15,3.24,10.68,10.68,0,0,0,0,9.68,8.28,8.28,0,0,0,3.15,3.25A8.83,8.83,0,0,0,624.77,184.36Zm8.86,1.72V178.9l.38-3.82-.42-3.83V154.92h2.1v31.16Z"/><path class="cls-1" d="M650.48,186.25a10.51,10.51,0,0,1-4.23-.78,6.09,6.09,0,0,1-2.73-2.2,5.83,5.83,0,0,1-.94-3.28,6,6,0,0,1,.78-3,5.58,5.58,0,0,1,2.58-2.23,11.38,11.38,0,0,1,4.83-.86h8.06v1.64h-8q-3.4,0-4.77,1.26a4.1,4.1,0,0,0-1.36,3.15,4.05,4.05,0,0,0,1.6,3.36,7.08,7.08,0,0,0,4.49,1.26,8.3,8.3,0,0,0,4.68-1.26,7.42,7.42,0,0,0,2.84-3.66l.59,1.43a7.59,7.59,0,0,1-3,3.8A9.54,9.54,0,0,1,650.48,186.25Zm7.89-.17v-5l-.08-.75v-8.24a6.21,6.21,0,0,0-1.66-4.66,6.75,6.75,0,0,0-4.85-1.59,11.47,11.47,0,0,0-4.22.77,11.32,11.32,0,0,0-3.34,2l-1.05-1.51a11.57,11.57,0,0,1,4-2.29A14.25,14.25,0,0,1,652,164a8.77,8.77,0,0,1,6.25,2.06q2.19,2.05,2.19,6.13v13.9Z"/><path class="cls-1" d="M677.48,186.25a10.9,10.9,0,0,1-5.52-1.41,10.27,10.27,0,0,1-3.89-3.93,12.58,12.58,0,0,1,0-11.61,10.26,10.26,0,0,1,3.89-3.9,10.9,10.9,0,0,1,5.52-1.41,10.33,10.33,0,0,1,5.23,1.34,9.72,9.72,0,0,1,3.7,3.82,12.22,12.22,0,0,1,1.36,6,12.46,12.46,0,0,1-1.34,5.92,9.46,9.46,0,0,1-3.68,3.86A10.31,10.31,0,0,1,677.48,186.25Zm.13-1.89a8.83,8.83,0,0,0,4.51-1.16,8.28,8.28,0,0,0,3.15-3.25,10.68,10.68,0,0,0,0-9.68,8.32,8.32,0,0,0-3.15-3.24,9.44,9.44,0,0,0-9,0,8.32,8.32,0,0,0-3.15,3.24,10.76,10.76,0,0,0,0,9.68,8.28,8.28,0,0,0,3.15,3.25A8.87,8.87,0,0,0,677.61,184.36Zm8.86,1.72V178.9l.38-3.82-.42-3.83V154.92h2.1v31.16Z"/></svg>