<svg id="Layer_1" data-name="Layer 1" xmlns="http://www.w3.org/2000/svg" viewBox="0 0 200 200"><defs><style>.cls-1{fill:#f98529;}</style></defs><title>cruz-roja</title><path class="cls-1" d="M20.85,173.28V31.05a8.26,8.26,0,0,0,.33-.82,11.63,11.63,0,0,1,13.44-8.65c11.3,1.75,22.6,3.44,33.89,5.16,12.52,1.9,25,3.75,37.55,5.75,6.84,1.09,10.4,5.45,10.4,12.39V178.42h-28v-1.95c0-10.62,0-21.23,0-31.85,0-7.39-4.81-12.2-12.17-12.23q-7.65,0-15.31,0a14.26,14.26,0,0,0-2.92.22c-5.54,1.17-9.13,5.69-9.15,11.59,0,10.82,0,21.64,0,32.46v1.87c-6.78,0-13.32-.12-19.86,0C25,178.68,22.2,177.18,20.85,173.28Zm31.41-125c-1.7,0-3.4,0-5.1,0a4.89,4.89,0,0,0-4.88,4.62,4.79,4.79,0,0,0,4.33,5.13,100.25,100.25,0,0,0,11.1,0A4.69,4.69,0,0,0,62,52.8a4.83,4.83,0,0,0-4.82-4.49C55.56,48.26,53.91,48.3,52.26,48.3Zm-.1,19.78c-1.65,0-3.3,0-4.94,0a4.91,4.91,0,0,0-4.94,4.73,4.75,4.75,0,0,0,4.28,5,96.14,96.14,0,0,0,11.26,0A4.64,4.64,0,0,0,62,72.64a4.82,4.82,0,0,0-4.77-4.54C55.56,68,53.86,68.09,52.16,68.08Zm0,19.79c-1.65,0-3.3,0-4.94,0a4.9,4.9,0,0,0-4.94,4.72,4.76,4.76,0,0,0,4.28,5,96,96,0,0,0,11.25,0A4.64,4.64,0,0,0,62,92.43a4.82,4.82,0,0,0-4.77-4.54C55.56,87.83,53.86,87.88,52.16,87.87Zm.13,19.79c-1.7,0-3.4,0-5.09,0a4.91,4.91,0,0,0-4.92,4.59,4.77,4.77,0,0,0,4.3,5.15,93.83,93.83,0,0,0,11.25,0c2.68-.16,4.35-2.52,4.19-5.19a4.83,4.83,0,0,0-4.79-4.53C55.59,107.62,53.94,107.66,52.29,107.66Zm33-59.36c-1.7,0-3.4,0-5.1,0a4.9,4.9,0,0,0-4.91,4.59A4.72,4.72,0,0,0,79.55,58a94,94,0,0,0,11.26,0A4.71,4.71,0,0,0,95,52.84a4.92,4.92,0,0,0-4.82-4.53C88.58,48.25,86.93,48.3,85.28,48.3Zm0,19.78c-1.7,0-3.4,0-5.1,0a4.9,4.9,0,0,0-4.91,4.59,4.72,4.72,0,0,0,4.28,5.15,94,94,0,0,0,11.26,0A4.72,4.72,0,0,0,95,72.62a4.91,4.91,0,0,0-4.82-4.52C88.58,68,86.93,68.09,85.28,68.08Zm-.16,29.68h0c1.65,0,3.3.06,4.94,0a4.93,4.93,0,1,0-.16-9.86q-4.71-.06-9.42,0c-3.07,0-5.22,2.09-5.21,4.92a5,5,0,0,0,5.22,5C82,97.79,83.58,97.76,85.12,97.76Zm0,9.91c-1.7,0-3.4,0-5.1,0a4.86,4.86,0,0,0-4.78,4.54,4.65,4.65,0,0,0,4.09,5.14,91,91,0,0,0,11.56,0A4.66,4.66,0,0,0,95,112.23a4.91,4.91,0,0,0-4.79-4.55C88.56,107.62,86.86,107.67,85.16,107.67Z"/><path class="cls-1" d="M123.2,178.54V81.94l8.07,1.68q19.1,4,38.2,8c6.15,1.3,9.68,5.68,9.68,12q0,31.38,0,62.75c0,7.3-4.9,12.19-12.23,12.19H123.2Zm26.34-69.26c-1.65,0-3.3,0-4.95,0a4.94,4.94,0,1,0-.06,9.88c3.3,0,6.59,0,9.89,0a4.94,4.94,0,1,0-.09-9.88C152.73,109.25,151.13,109.28,149.54,109.28Zm-.07,19.79c-1.65,0-3.3,0-4.94,0a4.94,4.94,0,0,0-.09,9.87q5,.09,10,0a4.94,4.94,0,0,0-.06-9.87C152.77,129,151.12,129.07,149.47,129.07Zm-.07,29.68c1.59,0,3.19,0,4.79,0a4.94,4.94,0,1,0,.06-9.88c-3.19,0-6.39,0-9.58,0a4.94,4.94,0,1,0-.06,9.88C146.2,158.77,147.8,158.75,149.4,158.75Z"/></svg>