<svg id="Layer_1" data-name="Layer 1" xmlns="http://www.w3.org/2000/svg" viewBox="0 0 200 200"><defs><style>.cls-1{fill:#f98529;}</style></defs><title>cruz-roja</title><path class="cls-1" d="M101.23,179.54H98.75c-.87-.69-2.06-1.2-2.56-2.1-2.33-4.17-5.93-6.93-10-9-5.68-3-11.49-5.67-17.29-8.39-7.83-3.67-15.59-7.44-22.43-12.83-10.75-8.46-16.24-19.42-16-33.19a65.14,65.14,0,0,1,5-24.92A61.62,61.62,0,0,0,40.25,71c.64-6.28-.28-12.07-4.15-17.19-1.37-1.81-2.78-3.6-4.25-5.34-1.84-2.16-1.93-4.71,0-6.69q9.9-10,19.88-19.87a4.48,4.48,0,0,1,6.2-.38c1.21.89,2.35,1.87,3.54,2.78a26.84,26.84,0,0,0,34.28-1.6c3.28-3,5.11-2.95,8.41,0a26.34,26.34,0,0,0,22.86,6.6c5.61-.92,10.21-3.78,14.46-7.37,2.47-2.07,4.77-1.95,7,.3q9.69,9.65,19.33,19.33c2.19,2.2,2.18,4.72.14,7-1.16,1.31-2.31,2.66-3.35,4.07-3.52,4.75-5.56,9.89-5.1,16a58.2,58.2,0,0,0,4.25,18.66,70.34,70.34,0,0,1,5.65,23.23c1,15.28-4.23,27.64-16.44,37-6.54,5-13.86,8.61-21.24,12.13-6.67,3.18-13.3,6.43-19.86,9.83a17.75,17.75,0,0,0-7.18,6.49A8.41,8.41,0,0,1,101.23,179.54ZM74.8,123a4.72,4.72,0,0,0,7.3,4.23c5.52-2.93,11.08-5.8,16.59-8.76a2.5,2.5,0,0,1,2.68,0c5.56,3,11.15,5.9,16.73,8.84a4.56,4.56,0,0,0,5.24-.32,4.66,4.66,0,0,0,1.73-4.84c-1.08-6.22-2.13-12.43-3.25-18.64a2.42,2.42,0,0,1,.8-2.44c4.48-4.3,8.9-8.66,13.36-13,1.53-1.48,2.35-3.15,1.63-5.29s-2.36-3-4.47-3.27c-6.19-.88-12.37-1.84-18.57-2.69a2.09,2.09,0,0,1-1.82-1.35c-2.69-5.52-5.44-11-8.12-16.55-1-2-2.3-3.47-4.69-3.45s-3.61,1.43-4.56,3.39c-2.7,5.58-5.48,11.13-8.19,16.7a2,2,0,0,1-1.72,1.27c-6.14.85-12.27,1.82-18.42,2.65-2.17.3-3.89,1.07-4.66,3.24s.1,3.89,1.68,5.41c4.46,4.31,8.92,8.64,13.31,13a2.85,2.85,0,0,1,.75,2.11c-.45,3.22-1.08,6.42-1.63,9.63C75.91,116.36,75.33,119.82,74.8,123Z"/><path class="cls-1" d="M123.13,87.59l-3.69,3.58c-1.93,1.88-3.84,3.77-5.79,5.62a4.88,4.88,0,0,0-1.59,4.62q1,6,2,12.08c0,.34.08.69.13,1.22-3.85-2-7.57-3.9-11.23-5.92a5.69,5.69,0,0,0-6,0c-3.65,2-7.38,3.91-11.35,6,.51-3,1-5.69,1.42-8.41.26-1.53.51-3.06.8-4.58a5.29,5.29,0,0,0-1.72-5.18c-2.71-2.55-5.35-5.18-8-7.77a12.46,12.46,0,0,0-1.22-1l.19-.41,7.58-1.12c1.69-.25,3.37-.52,5.06-.72a5.37,5.37,0,0,0,4.5-3.33c1.57-3.36,3.27-6.68,4.92-10,.22-.45.47-.88.85-1.57.84,1.68,1.56,3.13,2.28,4.59,1.19,2.41,2.41,4.8,3.57,7.23a5,5,0,0,0,4,3c4,.56,8,1.16,12,1.74C122.19,87.34,122.52,87.45,123.13,87.59Z"/></svg>